<svg width="55" height="58" viewBox="0 0 55 58" fill="none" xmlns="http://www.w3.org/2000/svg">
<g clip-path="url(#clip0_472_2)">
<rect width="54.8008" height="56" rx="27.4004" fill="black"/>
<path d="M6.5973 34V22.3636H9.05753V31.9716H14.0462V34H6.5973ZM25.9155 28.1818C25.9155 29.4508 25.675 30.5303 25.1939 31.4205C24.7166 32.3106 24.0651 32.9905 23.2393 33.4602C22.4174 33.9261 21.4931 34.1591 20.4666 34.1591C19.4325 34.1591 18.5045 33.9242 17.6825 33.4545C16.8606 32.9848 16.2109 32.3049 15.7337 31.4148C15.2564 30.5246 15.0178 29.447 15.0178 28.1818C15.0178 26.9129 15.2564 25.8333 15.7337 24.9432C16.2109 24.053 16.8606 23.375 17.6825 22.9091C18.5045 22.4394 19.4325 22.2045 20.4666 22.2045C21.4931 22.2045 22.4174 22.4394 23.2393 22.9091C24.0651 23.375 24.7166 24.053 25.1939 24.9432C25.675 25.8333 25.9155 26.9129 25.9155 28.1818ZM23.4212 28.1818C23.4212 27.3598 23.2981 26.6667 23.0518 26.1023C22.8094 25.5379 22.4666 25.1098 22.0234 24.8182C21.5803 24.5265 21.0613 24.3807 20.4666 24.3807C19.8719 24.3807 19.353 24.5265 18.9098 24.8182C18.4666 25.1098 18.1219 25.5379 17.8757 26.1023C17.6333 26.6667 17.5121 27.3598 17.5121 28.1818C17.5121 29.0038 17.6333 29.697 17.8757 30.2614C18.1219 30.8258 18.4666 31.2538 18.9098 31.5455C19.353 31.8371 19.8719 31.983 20.4666 31.983C21.0613 31.983 21.5803 31.8371 22.0234 31.5455C22.4666 31.2538 22.8094 30.8258 23.0518 30.2614C23.2981 29.697 23.4212 29.0038 23.4212 28.1818ZM35.4538 26.125C35.3743 25.8485 35.2625 25.6042 35.1186 25.392C34.9747 25.1761 34.7985 24.9943 34.5902 24.8466C34.3857 24.6951 34.1508 24.5795 33.8857 24.5C33.6243 24.4205 33.3345 24.3807 33.0163 24.3807C32.4216 24.3807 31.8989 24.5284 31.4482 24.8239C31.0012 25.1193 30.6527 25.5492 30.4027 26.1136C30.1527 26.6742 30.0277 27.3598 30.0277 28.1705C30.0277 28.9811 30.1508 29.6705 30.397 30.2386C30.6432 30.8068 30.9917 31.2405 31.4425 31.5398C31.8932 31.8352 32.4254 31.983 33.0391 31.983C33.5959 31.983 34.0713 31.8845 34.4652 31.6875C34.8629 31.4867 35.166 31.2045 35.3743 30.8409C35.5864 30.4773 35.6925 30.0473 35.6925 29.5511L36.1925 29.625H33.1925V27.7727H38.0618V29.2386C38.0618 30.2614 37.8459 31.1402 37.4141 31.875C36.9822 32.6061 36.3875 33.1705 35.63 33.5682C34.8724 33.9621 34.005 34.1591 33.0277 34.1591C31.9368 34.1591 30.9785 33.9186 30.1527 33.4375C29.3269 32.9527 28.683 32.2652 28.2209 31.375C27.7625 30.4811 27.5334 29.4205 27.5334 28.1932C27.5334 27.25 27.6697 26.4091 27.9425 25.6705C28.219 24.928 28.6054 24.2992 29.1016 23.7841C29.5978 23.2689 30.1754 22.8769 30.8345 22.608C31.4936 22.339 32.2076 22.2045 32.9766 22.2045C33.6357 22.2045 34.2493 22.3011 34.8175 22.4943C35.3857 22.6837 35.8894 22.9527 36.3288 23.3011C36.772 23.6496 37.1338 24.0644 37.4141 24.5455C37.6944 25.0227 37.8743 25.5492 37.9538 26.125H35.4538ZM50.603 28.1818C50.603 29.4508 50.3625 30.5303 49.8814 31.4205C49.4041 32.3106 48.7526 32.9905 47.9268 33.4602C47.1049 33.9261 46.1806 34.1591 45.1541 34.1591C44.12 34.1591 43.192 33.9242 42.37 33.4545C41.5481 32.9848 40.8984 32.3049 40.4212 31.4148C39.9439 30.5246 39.7053 29.447 39.7053 28.1818C39.7053 26.9129 39.9439 25.8333 40.4212 24.9432C40.8984 24.053 41.5481 23.375 42.37 22.9091C43.192 22.4394 44.12 22.2045 45.1541 22.2045C46.1806 22.2045 47.1049 22.4394 47.9268 22.9091C48.7526 23.375 49.4041 24.053 49.8814 24.9432C50.3625 25.8333 50.603 26.9129 50.603 28.1818ZM48.1087 28.1818C48.1087 27.3598 47.9856 26.6667 47.7393 26.1023C47.4969 25.5379 47.1541 25.1098 46.7109 24.8182C46.2678 24.5265 45.7488 24.3807 45.1541 24.3807C44.5594 24.3807 44.0405 24.5265 43.5973 24.8182C43.1541 25.1098 42.8094 25.5379 42.5632 26.1023C42.3208 26.6667 42.1996 27.3598 42.1996 28.1818C42.1996 29.0038 42.3208 29.697 42.5632 30.2614C42.8094 30.8258 43.1541 31.2538 43.5973 31.5455C44.0405 31.8371 44.5594 31.983 45.1541 31.983C45.7488 31.983 46.2678 31.8371 46.7109 31.5455C47.1541 31.2538 47.4969 30.8258 47.7393 30.2614C47.9856 29.697 48.1087 29.0038 48.1087 28.1818Z" fill="white"/>
</g>
<defs>
<clipPath id="clip0_472_2">
<rect width="55" height="58" fill="white"/>
</clipPath>
</defs>
</svg>
